<svg width="48" height="13" viewBox="0 0 48 13" fill="none" xmlns="http://www.w3.org/2000/svg">
<path d="M1.66662 12.3354L4.5146 12.325L4.47177 0.645071L0.0398041 0.661321L0.0491316 3.2053L1.63312 3.1995L1.66662 12.3354ZM6.78965 8.89263C6.92422 10.6841 8.16238 12.3596 10.7064 12.3503C13.8423 12.3388 14.7622 10.1274 14.7476 6.14343C14.7346 2.59146 13.7983 0.338873 10.4704 0.351075C7.99038 0.360168 6.46002 1.90179 6.4687 4.26977C6.4778 6.74976 8.01836 7.99212 10.0183 7.98478C11.0103 7.98115 11.8729 7.59398 12.3345 6.93629C12.3427 9.16027 11.9463 10.1377 10.7943 10.142C9.94627 10.1451 9.48063 9.69877 9.31764 8.88336L6.78965 8.89263ZM10.6344 5.82251C9.56243 5.82644 9.04803 5.17232 9.0448 4.29233C9.04122 3.31634 9.61499 2.70623 10.559 2.70277C11.487 2.69936 12.097 3.25713 12.1008 4.29712C12.1043 5.24112 11.5304 5.81923 10.6344 5.82251ZM29.3164 12.2341L30.3964 12.2301L30.3822 8.35412C30.3753 6.47014 29.2079 5.53841 27.7079 5.54391C26.6999 5.54761 25.7658 6.06703 25.3853 7.01644C24.9497 6.03403 24.0479 5.55733 22.9679 5.56129C22.1039 5.56446 21.3253 5.93931 20.8959 6.63689L20.8924 5.6889L19.8004 5.6929L19.8245 12.2689L20.9165 12.2649L20.9032 8.64088C20.898 7.22489 21.6514 6.51412 22.7554 6.51007C23.8354 6.50611 24.5579 7.18747 24.5628 8.53146L24.5765 12.2514L25.6565 12.2475L25.6432 8.6235C25.638 7.20751 26.3914 6.49674 27.4954 6.4927C28.5754 6.48874 29.2979 7.17009 29.3028 8.51408L29.3164 12.2341ZM32.1877 12.2235L33.2797 12.2195L33.2556 5.64357L32.1636 5.64757L32.1877 12.2235ZM32.7237 4.57751C33.1197 4.57606 33.4425 4.25088 33.4409 3.83088C33.4394 3.41088 33.1142 3.08807 32.7182 3.08952C32.2982 3.09106 31.9754 3.41625 31.9769 3.83625C31.9785 4.25624 32.3037 4.57905 32.7237 4.57751ZM39.9528 12.1951L41.0328 12.1911L41.0185 8.31513C41.0116 6.43114 39.8442 5.49941 38.3202 5.505C37.4322 5.50826 36.6416 5.88316 36.2121 6.56874L36.2087 5.63274L35.1167 5.63675L35.1408 12.2127L36.2328 12.2087L36.2195 8.57272C36.2143 7.15673 36.9797 6.45792 38.0957 6.45383C39.1997 6.44978 39.9342 7.13109 39.9391 8.47508L39.9528 12.1951ZM47.5379 10.3792C47.4813 8.02743 43.6685 8.89341 43.6627 7.33342C43.6608 6.80543 44.1394 6.41967 44.9434 6.41672C45.8194 6.41351 46.3251 6.89166 46.3756 7.55148L47.4676 7.54747C47.3909 6.26375 46.428 5.48727 44.976 5.4926C43.512 5.49796 42.5671 6.32943 42.5708 7.33743C42.5797 9.78541 46.4646 8.91916 46.4699 10.3832C46.4719 10.9231 45.9935 11.3569 45.1295 11.3601C44.2055 11.3635 43.6398 10.8855 43.5774 10.2498L42.4494 10.2539C42.5258 11.4536 43.6089 12.2897 45.1449 12.284C46.5969 12.2787 47.5419 11.4592 47.5379 10.3792Z" fill="#414141"/>
</svg>
