<svg width="48" height="13" viewBox="0 0 48 13" fill="none" xmlns="http://www.w3.org/2000/svg">
<path d="M0.923818 12.5217L8.95576 12.4922L8.94761 10.2682L4.62764 10.2841C6.47841 8.85327 8.75888 6.79689 8.7495 4.23691C8.74228 2.26892 7.5526 0.721274 4.89662 0.731012C2.76863 0.738814 0.9331 1.96155 0.863484 4.79383L3.50347 4.78415C3.49942 3.68015 3.97707 3.0384 4.79306 3.03541C5.62506 3.03236 6.01105 3.57495 6.01416 4.42294C6.02137 6.39093 3.38884 8.43259 0.916368 10.4897L0.923818 12.5217ZM11.457 12.643L14.3049 12.6326L14.2621 0.952676L9.83015 0.968925L9.83947 3.51291L11.4235 3.5071L11.457 12.643ZM29.2631 12.5778L30.3431 12.5738L30.3289 8.69782C30.322 6.81383 29.1545 5.88211 27.6545 5.88761C26.6466 5.8913 25.7125 6.41073 25.3319 7.36013C24.8963 6.37772 23.9946 5.90102 22.9146 5.90498C22.0506 5.90815 21.272 6.28301 20.8425 6.98059L20.839 6.0326L19.747 6.0366L19.7712 12.6126L20.8631 12.6086L20.8499 8.98458C20.8447 7.56859 21.5981 6.85782 22.7021 6.85377C23.7821 6.84981 24.5046 7.53117 24.5095 8.87516L24.5231 12.5951L25.6031 12.5912L25.5898 8.9672C25.5846 7.55121 26.338 6.84044 27.442 6.83639C28.522 6.83243 29.2445 7.51379 29.2495 8.85778L29.2631 12.5778ZM32.1344 12.5672L33.2263 12.5632L33.2022 5.98727L32.1102 5.99127L32.1344 12.5672ZM32.6703 4.92121C33.0663 4.91976 33.3891 4.59457 33.3876 4.17457C33.386 3.75458 33.0609 3.43177 32.6649 3.43322C32.2449 3.43476 31.9221 3.75994 31.9236 4.17994C31.9251 4.59994 32.2503 4.92275 32.6703 4.92121ZM39.8994 12.5388L40.9794 12.5348L40.9652 8.65882C40.9583 6.77483 39.7909 5.84311 38.2669 5.8487C37.3789 5.85195 36.5883 6.22685 36.1588 6.91243L36.1553 5.97644L35.0633 5.98044L35.0875 12.5564L36.1794 12.5524L36.1661 8.91642C36.1609 7.50043 36.9264 6.80162 38.0424 6.79753C39.1464 6.79348 39.8809 7.47479 39.8858 8.81878L39.8994 12.5388ZM47.4846 10.7229C47.428 8.37112 43.6151 9.23711 43.6094 7.67712C43.6075 7.14912 44.0861 6.76337 44.8901 6.76042C45.766 6.75721 46.2718 7.23536 46.3222 7.89517L47.4142 7.89117C47.3375 6.60744 46.3747 5.83097 44.9227 5.83629C43.4587 5.84166 42.5137 6.67313 42.5174 7.68112C42.5264 10.1291 46.4112 9.26286 46.4166 10.7268C46.4186 11.2668 45.9402 11.7006 45.0762 11.7038C44.1522 11.7072 43.5864 11.2292 43.5241 10.5935L42.3961 10.5976C42.4725 11.7973 43.5556 12.6334 45.0916 12.6277C46.5436 12.6224 47.4886 11.8029 47.4846 10.7229Z" fill="#414141"/>
</svg>
