<svg width="52" height="13" viewBox="0 0 52 13" fill="none" xmlns="http://www.w3.org/2000/svg">
<path d="M0.988286 12.529L9.02023 12.4996L9.01208 10.2756L4.69211 10.2914C6.54287 8.86064 8.82335 6.80427 8.81396 4.24428C8.80675 2.2763 7.61706 0.728647 4.96108 0.738385C2.8331 0.746188 0.997567 1.96893 0.927951 4.8012L3.56793 4.79152C3.56389 3.68753 4.04154 3.04577 4.85753 3.04278C5.68953 3.03973 6.07552 3.58232 6.07863 4.43031C6.08584 6.3983 3.45331 8.43997 0.980835 10.497L0.988286 12.529ZM18.5141 4.09672C18.3638 2.36926 17.2377 0.709373 14.7257 0.718583C11.7017 0.729671 10.4611 2.73423 10.4757 6.73421C10.4885 10.2222 11.3617 12.715 14.8816 12.7021C17.3936 12.6929 18.8597 11.0875 18.8512 8.76751C18.8423 6.33553 17.3975 5.01282 15.3655 5.02027C14.2935 5.0242 13.3511 5.47566 12.8899 6.22935C12.8976 3.97331 13.3738 2.93155 14.6058 2.92704C15.4218 2.92405 15.8073 3.33864 15.9701 4.10604L18.5141 4.09672ZM14.7174 7.18266C15.7414 7.1789 16.2717 7.81696 16.2753 8.79296C16.279 9.78495 15.6891 10.3791 14.7611 10.3825C13.7211 10.3863 13.1269 9.78051 13.1232 8.75651C13.1193 7.70052 13.8534 7.18583 14.7174 7.18266ZM33.4994 12.5698L34.5794 12.5659L34.5652 8.6899C34.5583 6.80591 33.3909 5.87418 31.8909 5.87968C30.8829 5.88338 29.9488 6.40281 29.5682 7.35221C29.1326 6.3698 28.2309 5.8931 27.1509 5.89706C26.2869 5.90023 25.5083 6.27509 25.0788 6.97267L25.0753 6.02467L23.9834 6.02868L24.0075 12.6046L25.0995 12.6006L25.0862 8.97665C25.081 7.56066 25.8344 6.8499 26.9384 6.84585C28.0184 6.84189 28.7409 7.52324 28.7458 8.86723L28.7594 12.5872L29.8394 12.5832L29.8261 8.95927C29.8209 7.54328 30.5743 6.83252 31.6783 6.82847C32.7583 6.82451 33.4808 7.50586 33.4858 8.84986L33.4994 12.5698ZM36.3707 12.5593L37.4627 12.5553L37.4385 5.97934L36.3466 5.98335L36.3707 12.5593ZM36.9066 4.91329C37.3026 4.91183 37.6254 4.58665 37.6239 4.16665C37.6224 3.74665 37.2972 3.42384 36.9012 3.4253C36.4812 3.42684 36.1584 3.75202 36.1599 4.17202C36.1615 4.59202 36.4866 4.91483 36.9066 4.91329ZM44.1357 12.5308L45.2157 12.5269L45.2015 8.6509C45.1946 6.76691 44.0272 5.83519 42.5032 5.84077C41.6152 5.84403 40.8246 6.21893 40.3951 6.90451L40.3917 5.96852L39.2997 5.97252L39.3238 12.5485L40.4158 12.5445L40.4024 8.9085C40.3972 7.49251 41.1627 6.79369 42.2787 6.7896C43.3827 6.78555 44.1172 7.46687 44.1221 8.81086L44.1357 12.5308ZM51.7209 10.715C51.6643 8.3632 47.8514 9.22919 47.8457 7.6692C47.8438 7.1412 48.3224 6.75544 49.1264 6.7525C50.0024 6.74928 50.5081 7.22743 50.5585 7.88725L51.6505 7.88325C51.5738 6.59952 50.611 5.82305 49.159 5.82837C47.695 5.83374 46.75 6.66521 46.7537 7.6732C46.7627 10.1212 50.6476 9.25493 50.6529 10.7189C50.6549 11.2589 50.1765 11.6927 49.3125 11.6958C48.3885 11.6992 47.8227 11.2213 47.7604 10.5855L46.6324 10.5897C46.7088 11.7894 47.7919 12.6254 49.3279 12.6198C50.7799 12.6145 51.7249 11.795 51.7209 10.715Z" fill="#414141"/>
</svg>
