<svg width="14" height="17" viewBox="0 0 14 17" fill="none" xmlns="http://www.w3.org/2000/svg">
<path d="M13.5951 2.7859L9.67347 2.80028L9.66728 1.11279C9.66673 0.96361 9.60695 0.820754 9.50107 0.715652C9.3952 0.610551 9.25191 0.551812 9.10272 0.552359L4.60275 0.568859C4.45357 0.569406 4.31071 0.629193 4.20561 0.735068C4.10051 0.840943 4.04177 0.984234 4.04232 1.13342L4.04851 2.82091L0.126853 2.83528L0.116189 4.24158L1.27634 4.23733L2.0231 15.2737C2.04202 15.5591 2.16894 15.8266 2.37806 16.0218C2.58717 16.2169 2.86276 16.3251 3.14879 16.3243L10.6722 16.2967C10.958 16.2956 11.2328 16.1858 11.4406 15.9894C11.6483 15.7931 11.7736 15.525 11.7908 15.2397L12.4559 4.19634L13.6161 4.19209L13.5951 2.7859ZM4.08975 14.0708L3.74035 5.07205L4.9005 5.0678L5.2499 14.0666L4.08975 14.0708ZM7.46473 14.0585L6.33974 14.0626L6.30674 5.06264L7.43173 5.05852L7.46473 14.0585ZM8.26723 2.80544L5.45475 2.81575L5.45114 1.83138C5.451 1.79409 5.46569 1.75826 5.49196 1.73179C5.51824 1.70533 5.55395 1.69038 5.59125 1.69024L8.12248 1.68096C8.15978 1.68082 8.1956 1.69551 8.22207 1.72178C8.24854 1.74806 8.26348 1.78377 8.26362 1.82107L8.26723 2.80544ZM9.71472 14.0502L8.55457 14.0545L8.83797 5.05336L9.99812 5.04911L9.71472 14.0502Z" fill="url(#paint0_linear_1672_329)"/>
<defs>
<linearGradient id="paint0_linear_1672_329" x1="6.85274" y1="0.560609" x2="6.91048" y2="16.3105" gradientUnits="userSpaceOnUse">
<stop stop-color="#B74534"/>
<stop offset="1" stop-color="#C95D4D"/>
</linearGradient>
</defs>
</svg>
